<svg xmlns="http://www.w3.org/2000/svg" viewBox="0 0 80.53 76.57"><title>GdaK-whiteAsset 18</title><g id="Layer_2" data-name="Layer 2"><g id="Layer_1-2" data-name="Layer 1"><path d="M.1,25A5,5,0,0,1,4,19.82v2.87A2.32,2.32,0,0,0,2.75,25a2.89,2.89,0,0,0,3.19,2.83A2.78,2.78,0,0,0,9,25a2.33,2.33,0,0,0-1.37-2.44V25H5.18V19.64a8.15,8.15,0,0,1,3.28.3A5,5,0,0,1,11.74,25,5.59,5.59,0,0,1,6,30.82,5.64,5.64,0,0,1,.1,25Z" fill="#fff"/><path d="M10.19,16.16l1.4.65V19.9h-.4l-11-5.19V13.35l11-5.14h.4v3.06l-1.4.66Zm-2.47-.95V12.87L5,14.05Z" fill="#fff"/><path d="M8.94,4.23V.14h2.65V7.19H.28v-3Z" fill="#fff"/><path d="M15.26,10.53v4.11h1.61V10.85h2.59v3.79H21.3V10.39H24v7.2H12.69V10.53Z" fill="#fff"/><path d="M23.61.14H24V3.27L20.49,5.21V6.76H24v3H12.72c0-1.68,0-3.31,0-5a3.88,3.88,0,0,1,4-4.07A4,4,0,0,1,20,2.35ZM18.09,4.76a1.29,1.29,0,0,0-1.43-1.23,1.23,1.23,0,0,0-1.37,1.23V6.81h2.8Z" fill="#fff"/><path d="M34,8h2.39v5.83H34V12.38H27.43v1.3H25V8.11h2.39V9.42H34Z" fill="#fff"/><path d="M27.59.15v4.1H29.2V.47h2.59V4.25h1.84V0h2.7V7.21H25V.15Z" fill="#fff"/><path d="M62.82.05A5.4,5.4,0,0,1,68.4,5.64a5.38,5.38,0,0,1-5.58,5.71H58.51V.05Zm0,8.63a2.73,2.73,0,0,0,2.65-3,2.74,2.74,0,0,0-2.65-3H61.47v6Z" fill="#fff"/><path d="M76.6,2.61H72.5V4.22h3.78V6.81H72.5V8.65h4.25v2.7H69.54V0H76.6Z" fill="#fff"/><path d="M76.73,23.05v.42H73.59l-1.94-3.54H70.1v3.54h-3V12.16c1.68,0,3.32,0,5,0a3.88,3.88,0,0,1,4.07,4,3.93,3.93,0,0,1-1.68,3.3ZM72.1,17.52a1.28,1.28,0,0,0,1.23-1.42,1.23,1.23,0,0,0-1.23-1.37h-2v2.79Z" fill="#fff"/><path d="M3.81,50.2l-.64,1.4H.08v-.4l5.19-11H6.63l5.13,11v.4h-3l-.66-1.4Zm1-2.47H7.11L5.93,45Z" fill="#fff"/><path d="M20.08,45.73a2.63,2.63,0,0,1,1.4,2.43,3.3,3.3,0,0,1-3.59,3.44H12.45V40.3h5A3.34,3.34,0,0,1,21,43.78,2.67,2.67,0,0,1,20.08,45.73Zm-4.67-2.86v1.89h1.82a.85.85,0,0,0,.87-.89.88.88,0,0,0-.87-1Zm0,4.28V49h2.27a.87.87,0,0,0,.88-.87.86.86,0,0,0-.89-1Z" fill="#fff"/><path d="M2.81,60.46c0,.77.89,1.16,1.8,1.16s1.73-.34,1.73-1.07c0-1.08-1.26-1-2.09-1.1C2.18,59.32.11,58.58.11,56.22s2.09-3.7,4.4-3.7,4.4,1.24,4.35,3.7H6.09c0-.77-.74-1.1-1.53-1.1S3,55.3,3,56.16s.65.85,1.73,1c2.41.21,4.51.69,4.51,3.44,0,2.37-2.31,3.62-4.62,3.62S0,63,0,60.46Z" fill="#fff"/><path d="M17,55.27h-4.1v1.61h3.78v2.59H12.89v1.84h4.25V64H9.93V52.7H17Z" fill="#fff"/><path d="M23.69,61.62V64H17.86V61.62H19.3V55.09H18V52.7h5.58v2.39H22.26v6.53Z" fill="#fff"/><path d="M24.34,55.28V52.7h8.41v2.58H30V64H27.12V55.28Z" fill="#fff"/><path d="M6,74v2.39H.13V74H1.57V67.5H.26V65.1H5.84v2.4H4.53V74Z" fill="#fff"/><path d="M12.09,64.93a5,5,0,0,1,5.19,3.89H14.4a2.33,2.33,0,0,0-2.31-1.24,2.88,2.88,0,0,0-2.83,3.18,2.78,2.78,0,0,0,2.83,3.1,2.32,2.32,0,0,0,2.44-1.37H12.12V70h5.34a8.16,8.16,0,0,1-.31,3.28,5,5,0,0,1-5.06,3.28,5.82,5.82,0,1,1,0-11.63Z" fill="#fff"/><path d="M25.35,67.67h-4.1v1.62H25v2.59H21.25v1.84H25.5v2.7H18.29V65.1h7.06Z" fill="#fff"/><path d="M29.35,70.58v5.84h-3V65.06h.92l5.9,5.57V65.1h3V76.45h-.88Z" fill="#fff"/><path d="M69.12,46.2H76.7v3H69.19c-.94,0-1.35.82-1.35,1.66s.41,1.63,1.35,1.63H76.7v2.93H69.12c-2.54,0-3.88-2.2-3.88-4.57S66.58,46.2,69.12,46.2Zm10,1a1.53,1.53,0,0,1,0,3,1.53,1.53,0,0,1,0-3Zm0,4.39a1.52,1.52,0,0,1,0,3,1.52,1.52,0,0,1,0-3Z" fill="#fff"/><path d="M71.22,59.37H65.39v-3H76.75v.92l-5.58,5.9H76.7v3H65.36v-.87Z" fill="#fff"/><path d="M68.94,70.12c-.77,0-1.16.89-1.16,1.8s.34,1.73,1.07,1.73c1.08,0,1.05-1.26,1.1-2.09.12-2.07.87-4.14,3.23-4.14s3.7,2.09,3.7,4.4-1.25,4.4-3.7,4.35V73.4c.77,0,1.1-.74,1.1-1.53s-.18-1.54-1-1.54-.85.65-1,1.73c-.21,2.41-.69,4.51-3.44,4.51-2.37,0-3.62-2.31-3.62-4.62s1.2-4.69,3.73-4.64Z" fill="#fff"/><path d="M61.65,59.82h2.59v8.41H61.65V65.46H52.93V62.6h8.72Z" fill="#fff"/><path d="M61.67,76.19V72.08H60.05v3.78H57.47V72.08H55.62v4.25H52.93V69.12H64.24v7.07Z" fill="#fff"/><path d="M76.73,45.36V42l-4.28-2.45V38.2h4.28V35.27H65.51V38.2h4.28v1.39L65.51,42v3.32H66c1.42-.93,4.36-2.79,5.18-3.3.79.5,3.73,2.36,5.17,3.3Z" fill="#fff"/></g></g></svg>